<svg xmlns="http://www.w3.org/2000/svg" viewBox="0 0 680 200" width="680" height="200" font-family='system-ui, -apple-system, "Segoe UI", sans-serif' role="img">
<rect x="0" y="0" width="680" height="200" fill="#1a1a19"/>
<line x1="535.0" y1="22" x2="535.0" y2="172" stroke="#898781" stroke-width="1" stroke-dasharray="3,3"/>
<text x="535.0" y="18" text-anchor="middle" font-size="11.5" fill="#898781">85% target</text>
<line x1="235" y1="172" x2="596" y2="172" stroke="#2c2c2a" stroke-width="1"/>
<line x1="235" y1="34" x2="235" y2="172" stroke="#383835" stroke-width="1"/>
<path d="M 235,40 L 489.74899999999997,40 A 4,4 0 0 1 493.74899999999997,44 L 493.74899999999997,58 A 4,4 0 0 1 489.74899999999997,62 L 235,62 Z" fill="#b7d3f6"/>
<text x="221" y="55.5" text-anchor="end" font-size="13.5" fill="#c3c2b7">Dense search only (baseline)</text>
<text x="503.7" y="55.5" text-anchor="start" font-size="13.5" font-weight="600" fill="#ffffff">73.3%</text>
<path d="M 235,92 L 513.4000000000001,92 A 4,4 0 0 1 517.4000000000001,96 L 517.4000000000001,110 A 4,4 0 0 1 513.4000000000001,114 L 235,114 Z" fill="#5598e7"/>
<text x="221" y="107.5" text-anchor="end" font-size="13.5" fill="#c3c2b7">+ table-aware chunking</text>
<text x="527.4" y="107.5" text-anchor="start" font-size="13.5" font-weight="600" fill="#ffffff">80.0%</text>
<path d="M 235,144 L 528.932,144 A 4,4 0 0 1 532.932,148 L 532.932,162 A 4,4 0 0 1 528.932,166 L 235,166 Z" fill="#1c5cab"/>
<text x="221" y="159.5" text-anchor="end" font-size="13.5" fill="#c3c2b7">+ BM25 hybrid search (RRF)</text>
<text x="542.9" y="159.5" text-anchor="start" font-size="13.5" font-weight="600" fill="#ffffff">84.4%</text>
</svg>
