<svg xmlns="http://www.w3.org/2000/svg" viewBox="0 0 680 186" width="680" height="186" font-family='system-ui, -apple-system, "Segoe UI", sans-serif' role="img">
<rect x="0" y="0" width="680" height="186" fill="#fcfcfb"/>
<line x1="235" y1="158" x2="596" y2="158" stroke="#e1e0d9" stroke-width="1"/>
<line x1="235" y1="20" x2="235" y2="158" stroke="#c3c2b7" stroke-width="1"/>
<path d="M 235,26 L 256.2142857142857,26 A 4,4 0 0 1 260.2142857142857,30 L 260.2142857142857,44 A 4,4 0 0 1 256.2142857142857,48 L 235,48 Z" fill="#86b6ef"/>
<text x="221" y="41.5" text-anchor="end" font-size="13.5" fill="#52514e">multilingual-e5-small (shipped)</text>
<text x="221" y="55.5" text-anchor="end" font-size="11" fill="#898781">118M params</text>
<text x="270.2" y="41.5" text-anchor="start" font-size="13.5" font-weight="600" fill="#0b0b0b">0.25s/chunk</text>
<path d="M 235,78 L 286.4714285714286,78 A 4,4 0 0 1 290.4714285714286,82 L 290.4714285714286,96 A 4,4 0 0 1 286.4714285714286,100 L 235,100 Z" fill="#3987e5"/>
<text x="221" y="93.5" text-anchor="end" font-size="13.5" fill="#52514e">multilingual-e5-base</text>
<text x="221" y="107.5" text-anchor="end" font-size="11" fill="#898781">278M params</text>
<text x="300.5" y="93.5" text-anchor="start" font-size="13.5" font-weight="600" fill="#0b0b0b">0.55s/chunk</text>
<path d="M 235,130 L 533.5714285714286,130 A 4,4 0 0 1 537.5714285714286,134 L 537.5714285714286,148 A 4,4 0 0 1 533.5714285714286,152 L 235,152 Z" fill="#184f95"/>
<text x="221" y="145.5" text-anchor="end" font-size="13.5" fill="#52514e">bge-m3 (original default)</text>
<text x="221" y="159.5" text-anchor="end" font-size="11" fill="#898781">567M params</text>
<text x="547.6" y="145.5" text-anchor="start" font-size="13.5" font-weight="600" fill="#0b0b0b">3.00s/chunk</text>
</svg>
